<svg width="52" height="50" viewBox="0 0 52 50" fill="none" xmlns="http://www.w3.org/2000/svg" xmlns:xlink="http://www.w3.org/1999/xlink">
<path d="M39.35,7.65C38.757,7.65 38.177,7.826 37.683,8.156C37.19,8.485 36.805,8.954 36.578,9.502C36.351,10.05 36.292,10.653 36.408,11.235C36.523,11.817 36.809,12.352 37.229,12.771C37.648,13.191 38.183,13.477 38.765,13.592C39.347,13.708 39.95,13.649 40.498,13.422C41.046,13.195 41.515,12.81 41.844,12.317C42.174,11.823 42.35,11.243 42.35,10.65C42.35,9.854 42.034,9.091 41.471,8.529C40.909,7.966 40.146,7.65 39.35,7.65ZM50.85,13.7C50.801,11.626 50.413,9.573 49.7,7.625C49.064,5.958 48.075,4.448 46.8,3.2C45.562,1.919 44.049,0.935 42.375,0.325C40.432,-0.41 38.377,-0.807 36.3,-0.85C33.65,-1 32.8,-1 26,-1C19.2,-1 18.35,-1 15.7,-0.85C13.623,-0.807 11.568,-0.41 9.625,0.325C7.954,0.942 6.442,1.924 5.2,3.2C3.919,4.438 2.935,5.951 2.325,7.625C1.59,9.568 1.193,11.623 1.15,13.7C1,16.35 1,17.2 1,24C1,30.8 1,31.65 1.15,34.3C1.193,36.377 1.59,38.432 2.325,40.375C2.935,42.049 3.919,43.562 5.2,44.8C6.442,46.076 7.954,47.058 9.625,47.675C11.568,48.41 13.623,48.807 15.7,48.85C18.35,49 19.2,49 26,49C32.8,49 33.65,49 36.3,48.85C38.377,48.807 40.432,48.41 42.375,47.675C44.049,47.065 45.562,46.081 46.8,44.8C48.081,43.556 49.071,42.045 49.7,40.375C50.413,38.426 50.801,36.374 50.85,34.3C50.85,31.65 51,30.8 51,24C51,17.2 51,16.35 50.85,13.7ZM46.35,34C46.332,35.587 46.044,37.159 45.5,38.65C45.101,39.738 44.46,40.721 43.625,41.525C42.814,42.351 41.833,42.991 40.75,43.4C39.259,43.944 37.687,44.232 36.1,44.25C33.6,44.375 32.675,44.4 26.1,44.4C19.525,44.4 18.6,44.4 16.1,44.25C14.452,44.281 12.811,44.027 11.25,43.5C10.214,43.07 9.278,42.432 8.5,41.625C7.67,40.822 7.037,39.838 6.65,38.75C6.04,37.238 5.701,35.63 5.65,34C5.65,31.5 5.5,30.575 5.5,24C5.5,17.425 5.5,16.5 5.65,14C5.661,12.378 5.957,10.77 6.525,9.25C6.965,8.195 7.641,7.254 8.5,6.5C9.26,5.64 10.198,4.958 11.25,4.5C12.774,3.95 14.38,3.663 16,3.65C18.5,3.65 19.425,3.5 26,3.5C32.575,3.5 33.5,3.5 36,3.65C37.587,3.668 39.159,3.956 40.65,4.5C41.786,4.922 42.806,5.607 43.625,6.5C44.444,7.268 45.084,8.207 45.5,9.25C46.056,10.772 46.343,12.379 46.35,14C46.475,16.5 46.5,17.425 46.5,24C46.5,30.575 46.475,31.5 46.35,34ZM26,11.175C23.465,11.18 20.987,11.936 18.882,13.349C16.776,14.761 15.136,16.765 14.169,19.109C13.202,21.453 12.952,24.031 13.449,26.517C13.947,29.003 15.171,31.286 16.965,33.077C18.76,34.869 21.045,36.088 23.532,36.58C26.019,37.073 28.597,36.818 30.939,35.846C33.281,34.875 35.282,33.231 36.69,31.123C38.098,29.014 38.85,26.535 38.85,24C38.853,22.313 38.523,20.642 37.878,19.082C37.233,17.523 36.286,16.107 35.092,14.915C33.898,13.723 32.48,12.779 30.919,12.137C29.359,11.495 27.687,11.168 26,11.175ZM26,32.325C24.353,32.325 22.744,31.837 21.375,30.922C20.006,30.007 18.939,28.707 18.309,27.186C17.679,25.665 17.514,23.991 17.835,22.376C18.156,20.761 18.949,19.278 20.113,18.113C21.278,16.949 22.761,16.156 24.376,15.835C25.991,15.514 27.665,15.679 29.186,16.309C30.707,16.939 32.007,18.006 32.922,19.375C33.837,20.744 34.325,22.353 34.325,24C34.325,25.093 34.11,26.176 33.691,27.186C33.273,28.196 32.66,29.114 31.887,29.887C31.114,30.66 30.196,31.273 29.186,31.691C28.176,32.11 27.093,32.325 26,32.325Z" fill="#FFFFFF"/>
</svg>
