<svg width="46" height="50" viewBox="0 0 46 50" fill="none" xmlns="http://www.w3.org/2000/svg" xmlns:xlink="http://www.w3.org/1999/xlink">
<path d="M19.5,-1L19.5,15.035C16.038,14.393 12.463,14.833 9.26,16.295C6.058,17.758 3.384,20.173 1.603,23.21C-0.178,26.247 -0.98,29.759 -0.693,33.268C-0.406,36.777 0.956,40.113 3.206,42.82C5.457,45.528 8.488,47.475 11.886,48.399C15.283,49.322 18.883,49.175 22.194,47.978C25.506,46.782 28.368,44.594 30.391,41.713C32.414,38.831 33.499,35.396 33.5,31.875L33.5,22.535C36.188,23.678 39.08,24.261 42,24.25L44.5,24.25L44.5,10.25L42,10.25C37.243,10.25 33.5,6.407 33.5,1.5L33.5,-1L19.5,-1ZM24.5,4L28.72,4C29.705,9.55 33.92,13.99 39.5,15.025L39.5,19.07C36.905,18.69 34.563,17.715 32.393,16.262L28.5,13.657L28.5,31.875C28.5,34.3 27.773,36.669 26.412,38.676C25.052,40.683 23.121,42.236 20.869,43.135C18.618,44.034 16.148,44.237 13.779,43.718C11.411,43.199 9.252,41.981 7.583,40.223C5.913,38.465 4.809,36.247 4.413,33.854C4.017,31.462 4.347,29.006 5.361,26.804C6.375,24.601 8.026,22.753 10.1,21.499C12.175,20.244 14.579,19.64 17,19.765L17,23.775C15.371,23.649 13.742,24.018 12.326,24.832C10.91,25.646 9.772,26.868 9.06,28.339C8.349,29.809 8.098,31.46 8.339,33.076C8.58,34.692 9.303,36.197 10.413,37.396C11.523,38.595 12.969,39.431 14.561,39.796C16.154,40.161 17.819,40.037 19.34,39.441C20.861,38.845 22.167,37.804 23.087,36.454C24.008,35.104 24.5,33.509 24.5,31.875L24.5,4ZM13.25,31.875C13.25,31.046 13.579,30.251 14.165,29.665C14.751,29.079 15.546,28.75 16.375,28.75C17.204,28.75 17.999,29.079 18.585,29.665C19.171,30.251 19.5,31.046 19.5,31.875C19.5,32.704 19.171,33.499 18.585,34.085C17.999,34.671 17.204,35 16.375,35C15.546,35 14.751,34.671 14.165,34.085C13.579,33.499 13.25,32.704 13.25,31.875Z" fill="#FFFFFF"/>
</svg>
