<svg width="52" height="50" viewBox="0 0 52 50" fill="none" xmlns="http://www.w3.org/2000/svg" xmlns:xlink="http://www.w3.org/1999/xlink">
<path d="M17.23,41.978C17.288,41.138 17.408,40.3 17.587,39.475C17.745,38.738 18.222,36.65 18.923,33.625L18.94,33.55L19.908,29.38C20.105,28.53 20.258,27.87 20.36,27.65C19.875,26.528 19.633,25.315 19.65,24.092C19.65,20.75 21.54,18.16 23.99,18.16C24.89,18.145 25.75,18.535 26.345,19.225C26.94,19.915 27.215,20.833 27.1,21.715C27.1,22.848 26.888,23.71 25.968,26.803C25.825,27.277 25.687,27.753 25.555,28.23C25.434,28.662 25.323,29.097 25.222,29.535C24.983,30.5 25.202,31.528 25.815,32.298C26.112,32.676 26.495,32.977 26.933,33.175C27.371,33.374 27.85,33.465 28.33,33.44C32.06,33.44 34.83,28.477 34.83,22.07C34.83,17.145 31.605,13.885 26.25,13.885C24.909,13.835 23.573,14.064 22.326,14.557C21.078,15.05 19.947,15.797 19.003,16.75C18.038,17.724 17.277,18.88 16.764,20.151C16.251,21.422 15.997,22.782 16.015,24.153C15.953,25.629 16.405,27.082 17.295,28.263C17.747,28.612 17.92,29.22 17.732,29.737C17.63,30.157 17.383,31.118 17.29,31.438C17.264,31.594 17.202,31.743 17.109,31.872C17.016,32.001 16.894,32.106 16.753,32.18C16.616,32.251 16.464,32.289 16.309,32.29C16.155,32.291 16.003,32.255 15.865,32.185C12.965,30.988 11.375,27.74 11.375,23.585C11.375,16.122 17.602,9.625 26.855,9.625C34.693,9.625 40.557,15.448 40.557,22.475C40.557,31.305 35.728,37.735 28.833,37.735C27.852,37.763 26.878,37.561 25.99,37.145C25.101,36.729 24.323,36.109 23.717,35.338L23.61,35.78L23.092,37.91L23.087,37.93C22.722,39.43 22.468,40.473 22.368,40.863C22.102,41.75 21.767,42.62 21.368,43.463C26.342,44.648 31.582,43.883 36.01,41.325C40.437,38.766 43.717,34.609 45.175,29.707C46.632,24.806 46.157,19.532 43.846,14.97C41.535,10.408 37.564,6.904 32.75,5.18C27.936,3.455 22.644,3.639 17.962,5.696C13.28,7.752 9.563,11.524 7.576,16.235C5.589,20.947 5.482,26.242 7.277,31.03C9.073,35.818 12.635,39.734 17.23,41.978ZM26,49C12.192,49 1,37.807 1,24C1,10.193 12.192,-1 26,-1C39.807,-1 51,10.193 51,24C51,37.807 39.807,49 26,49Z" fill="#FFFFFF"/>
</svg>
