<svg width="34" height="52" viewBox="0 0 34 52" fill="none" xmlns="http://www.w3.org/2000/svg" xmlns:xlink="http://www.w3.org/1999/xlink">
<path d="M20.5,51L10.5,51C9.837,51 9.201,50.737 8.732,50.268C8.263,49.799 8,49.163 8,48.5L8,33L3,33C2.337,33 1.701,32.737 1.232,32.268C0.763,31.799 0.5,31.163 0.5,30.5L0.5,21.5C0.5,20.837 0.763,20.201 1.232,19.732C1.701,19.263 2.337,19 3,19L8,19L8,14.75C8.175,10.941 9.852,7.356 12.662,4.779C15.473,2.203 19.19,0.844 23,1L30.5,1C31.163,1 31.799,1.263 32.268,1.732C32.737,2.201 33,2.837 33,3.5L33,12.5C33,13.163 32.737,13.799 32.268,14.268C31.799,14.736 31.163,15 30.5,15L23,15L23,19L30.5,19C30.886,18.997 31.267,19.083 31.614,19.253C31.961,19.422 32.265,19.669 32.5,19.975C32.733,20.285 32.89,20.646 32.96,21.028C33.029,21.41 33.009,21.802 32.9,22.175L30.4,31.175C30.249,31.716 29.92,32.19 29.466,32.521C29.013,32.852 28.461,33.021 27.9,33L23,33L23,48.5C23,49.163 22.737,49.799 22.268,50.268C21.799,50.737 21.163,51 20.5,51ZM13,46L18,46L18,30.5C18,29.837 18.263,29.201 18.732,28.732C19.201,28.263 19.837,28 20.5,28L26.1,28L27.2,24L20.5,24C19.837,24 19.201,23.736 18.732,23.268C18.263,22.799 18,22.163 18,21.5L18,14.75C18.064,13.468 18.619,12.259 19.55,11.375C20.481,10.491 21.716,9.998 23,10L28,10L28,6L23,6C20.517,5.849 18.075,6.682 16.202,8.321C14.33,9.959 13.18,12.269 13,14.75L13,21.5C13,22.163 12.737,22.799 12.268,23.268C11.799,23.736 11.163,24 10.5,24L5.5,24L5.5,28L10.5,28C11.163,28 11.799,28.263 12.268,28.732C12.737,29.201 13,29.837 13,30.5L13,46Z" fill="#FFFFFF"/>
</svg>
