<svg width="62" height="50" viewBox="0 0 62 50" fill="none" xmlns="http://www.w3.org/2000/svg" xmlns:xlink="http://www.w3.org/1999/xlink">
<path d="M40.102,3.298C43.2,3.298 45.997,4.566 47.968,6.601C50.419,6.127 52.73,5.262 54.807,4.065C54.004,6.505 52.295,8.551 50.072,9.846C52.247,9.59 54.329,9.031 56.261,8.196C54.813,10.29 52.989,12.134 50.884,13.608C50.903,14.055 50.915,14.507 50.915,14.957C50.915,28.769 40.074,44.7 20.252,44.7C14.167,44.7 8.5,42.964 3.734,40C4.587,40.099 5.444,40.148 6.303,40.148C11.351,40.148 16,38.478 19.689,35.671C14.971,35.59 10.988,32.565 9.622,28.415C10.291,28.54 10.971,28.603 11.651,28.603C12.631,28.603 13.585,28.477 14.487,28.237C9.558,27.28 5.842,23.054 5.842,17.987L5.842,17.853C7.297,18.637 8.957,19.107 10.726,19.162C7.833,17.285 5.931,14.09 5.931,10.462C5.931,8.545 6.463,6.749 7.39,5.211C12.704,11.531 20.645,15.694 29.603,16.132C29.418,15.368 29.322,14.562 29.322,13.751C29.322,7.977 34.147,3.298 40.102,3.298ZM40.101,-0.452C32.738,-0.452 26.638,4.928 25.699,11.878C19.674,10.668 14.196,7.479 10.259,2.8C9.907,2.381 9.468,2.044 8.972,1.814C8.476,1.583 7.936,1.463 7.389,1.463C7.291,1.463 7.193,1.467 7.095,1.474C6.501,1.522 5.926,1.71 5.419,2.024C4.912,2.337 4.486,2.767 4.178,3.278C2.871,5.447 2.18,7.932 2.181,10.465C2.181,12.155 2.484,13.801 3.06,15.341C2.447,16.022 2.093,16.914 2.093,17.855L2.093,17.989C2.093,21.662 3.546,25.071 5.957,27.626C5.818,28.269 5.849,28.942 6.061,29.587C6.892,32.117 8.406,34.298 10.37,35.959C9.051,36.253 7.691,36.401 6.303,36.401C5.569,36.401 4.854,36.36 4.178,36.278C4.028,36.259 3.88,36.252 3.731,36.252C2.156,36.252 0.726,37.245 0.196,38.759C-0.386,40.419 0.26,42.258 1.752,43.187C7.291,46.633 13.688,48.453 20.251,48.453C41.581,48.453 54.411,31.755 54.661,15.445C56.411,13.996 57.957,12.318 59.257,10.455C59.751,9.807 60.018,9.014 60.017,8.2C60.017,6.924 59.378,5.796 58.406,5.118C58.827,3.675 58.347,2.113 57.175,1.159C56.491,0.602 55.652,0.319 54.808,0.319C54.15,0.318 53.504,0.491 52.935,0.82C51.695,1.535 50.37,2.1 48.974,2.507C46.448,0.607 43.317,-0.452 40.101,-0.452Z" fill="#FFFFFF"/>
</svg>
